<svg xmlns="http://www.w3.org/2000/svg" xmlns:xlink="http://www.w3.org/1999/xlink" width="500" zoomAndPan="magnify" viewBox="0 0 375 374.999991" height="500" preserveAspectRatio="xMidYMid meet" version="1.0"><defs><clipPath id="079a6da287"><path d="M 226 59 L 364.972656 59 L 364.972656 316 L 226 316 Z M 226 59 " clip-rule="nonzero"/></clipPath><clipPath id="017c9f6d12"><path d="M 10.222656 59 L 149 59 L 149 316 L 10.222656 316 Z M 10.222656 59 " clip-rule="nonzero"/></clipPath></defs><g clip-path="url(#079a6da287)"><path fill="#0071fe" d="M 362.585938 59.40625 L 281.988281 94.890625 C 281.707031 95.015625 281.488281 95.242188 281.375 95.527344 L 226.765625 233.105469 C 226.648438 233.390625 226.652344 233.707031 226.773438 233.988281 L 261.09375 315.082031 C 261.496094 316.042969 262.863281 316.027344 263.25 315.0625 L 364.140625 60.902344 C 364.523438 59.933594 363.542969 58.984375 362.585938 59.40625 " fill-opacity="1" fill-rule="nonzero"/></g><g clip-path="url(#017c9f6d12)"><path fill="#0071fe" d="M 113.925781 315.082031 L 148.246094 233.988281 C 148.363281 233.707031 148.367188 233.390625 148.253906 233.105469 L 93.640625 95.527344 C 93.527344 95.242188 93.308594 95.011719 93.027344 94.890625 L 12.429688 59.402344 C 11.476562 58.984375 10.492188 59.933594 10.875 60.898438 L 111.769531 315.0625 C 112.15625 316.027344 113.519531 316.042969 113.925781 315.082031 " fill-opacity="1" fill-rule="nonzero"/></g><path fill="#0071fe" d="M 222.96875 120.875 L 188.449219 136.074219 C 188.152344 136.203125 187.8125 136.203125 187.515625 136.074219 L 152.996094 120.875 C 152.042969 120.457031 151.058594 121.402344 151.441406 122.371094 L 186.898438 211.6875 C 187.289062 212.667969 188.675781 212.667969 189.0625 211.6875 L 224.519531 122.371094 C 224.90625 121.402344 223.921875 120.457031 222.96875 120.875 " fill-opacity="1" fill-rule="nonzero"/></svg>